<?xml version="1.0" standalone="no"?>
<!DOCTYPE svg PUBLIC "-//W3C//DTD SVG 20010904//EN"
 "http://www.w3.org/TR/2001/REC-SVG-20010904/DTD/svg10.dtd">
<svg version="1.0" xmlns="http://www.w3.org/2000/svg"
 width="113.000000pt" height="225.000000pt" viewBox="0 0 113.000000 225.000000"
 preserveAspectRatio="xMidYMid meet">
<metadata>
Created by potrace 1.16, written by Peter Selinger 2001-2019
</metadata>
<g transform="translate(0.000000,225.000000) scale(0.100000,-0.100000)"
fill="#000000" stroke="none">
<path d="M480 2066 c-107 -24 -183 -84 -232 -184 -30 -60 -33 -75 -33 -152 1
-73 5 -93 29 -142 34 -67 94 -128 159 -161 l48 -24 -64 -17 c-164 -45 -290
-170 -358 -358 -24 -64 -29 -95 -29 -167 0 -103 11 -121 77 -121 34 0 46 6 67
31 14 17 26 38 26 48 0 66 69 238 112 278 l23 22 -3 -397 c-2 -218 0 -417 3
-441 9 -63 49 -101 107 -101 46 0 78 19 97 57 7 14 11 97 11 232 l0 211 35 0
35 0 0 -211 c0 -135 4 -218 11 -232 38 -75 150 -77 191 -4 10 16 14 133 18
452 l5 430 32 -44 c38 -50 68 -128 88 -220 16 -77 46 -111 100 -111 25 0 40 8
60 32 24 29 27 38 22 84 -6 62 -70 254 -100 304 -63 104 -186 198 -296 226
l-69 18 48 22 c68 32 125 87 159 155 39 79 47 148 27 230 -47 184 -226 296
-406 255z"/>
</g>
</svg>
