<?xml version="1.0" standalone="no"?>
<!DOCTYPE svg PUBLIC "-//W3C//DTD SVG 20010904//EN"
 "http://www.w3.org/TR/2001/REC-SVG-20010904/DTD/svg10.dtd">
<svg version="1.0" xmlns="http://www.w3.org/2000/svg"
 width="225.000000pt" height="225.000000pt" viewBox="0 0 225.000000 225.000000"
 preserveAspectRatio="xMidYMid meet">
<metadata>
Created by potrace 1.16, written by Peter Selinger 2001-2019
</metadata>
<g transform="translate(0.000000,225.000000) scale(0.100000,-0.100000)"
fill="#000000" stroke="none">
<path d="M570 2066 c-107 -24 -183 -84 -232 -184 -30 -60 -33 -75 -33 -152 1
-73 5 -93 29 -142 34 -67 94 -128 159 -161 l48 -24 -64 -17 c-122 -33 -230
-117 -302 -236 -41 -67 -95 -223 -102 -294 -5 -46 -2 -55 22 -84 23 -27 34
-32 70 -32 36 0 48 5 69 31 14 17 26 38 26 48 0 66 69 238 112 278 l23 22 -3
-397 c-2 -218 0 -417 3 -441 9 -63 49 -101 107 -101 46 0 78 19 97 57 7 14 11
97 11 232 l0 211 35 0 35 0 0 -211 c0 -135 4 -218 11 -232 38 -75 150 -77 191
-4 10 16 14 133 18 452 l5 430 32 -44 c38 -50 68 -128 88 -220 16 -78 46 -111
101 -111 50 0 89 41 98 103 14 89 58 196 105 251 15 17 16 -18 21 -412 5 -417
6 -431 26 -459 48 -65 135 -65 174 0 18 29 20 52 20 245 l0 212 35 0 35 0 0
-211 c0 -135 4 -218 11 -232 19 -38 51 -57 97 -57 58 0 98 38 107 101 3 24 5
223 3 441 l-3 397 23 -22 c43 -40 112 -212 112 -278 0 -10 12 -31 26 -48 36
-43 93 -44 135 -2 35 35 36 59 9 167 -60 237 -216 411 -408 455 l-49 12 57 29
c141 70 214 228 176 379 -46 179 -214 290 -390 258 -117 -21 -203 -88 -255
-198 -35 -74 -36 -200 -3 -274 29 -64 101 -139 161 -168 l49 -23 -68 -22 c-38
-12 -89 -33 -114 -48 -54 -31 -130 -106 -166 -163 l-27 -42 -18 32 c-58 99
-185 195 -294 223 l-69 18 48 22 c68 32 125 87 159 155 39 79 47 148 27 230
-47 184 -226 296 -406 255z"/>
</g>
</svg>
