<?xml version="1.0" standalone="no"?>
<!DOCTYPE svg PUBLIC "-//W3C//DTD SVG 20010904//EN"
 "http://www.w3.org/TR/2001/REC-SVG-20010904/DTD/svg10.dtd">
<svg version="1.0" xmlns="http://www.w3.org/2000/svg"
 width="740.000000pt" height="717.000000pt" viewBox="0 0 740.000000 717.000000"
 preserveAspectRatio="xMidYMid meet">
<metadata>
Created by potrace 1.16, written by Peter Selinger 2001-2019
</metadata>
<g transform="translate(0.000000,717.000000) scale(0.100000,-0.100000)"
fill="#000000" stroke="none">
<path d="M3420 6154 c-613 -73 -1155 -338 -1567 -768 -195 -202 -336 -403
-458 -651 -349 -711 -349 -1536 0 -2250 198 -404 494 -743 871 -998 944 -637
2217 -564 3080 176 854 733 1133 1908 698 2944 -252 603 -754 1105 -1357 1357
-402 169 -864 238 -1267 190z m533 -640 c443 -64 816 -256 1128 -582 266 -277
436 -615 505 -1002 27 -149 27 -491 0 -640 -69 -387 -239 -725 -505 -1002
-376 -392 -854 -598 -1391 -598 -408 0 -780 119 -1123 360 -120 84 -353 317
-437 437 -241 343 -360 715 -360 1123 0 534 205 1013 592 1385 293 282 658
461 1058 519 135 20 397 20 533 0z"/>
</g>
</svg>
