<?xml version="1.0" standalone="no"?>
<!DOCTYPE svg PUBLIC "-//W3C//DTD SVG 20010904//EN"
 "http://www.w3.org/TR/2001/REC-SVG-20010904/DTD/svg10.dtd">
<svg version="1.0" xmlns="http://www.w3.org/2000/svg"
 width="1600.000000pt" height="1600.000000pt" viewBox="0 0 1600.000000 1600.000000"
 preserveAspectRatio="xMidYMid meet">
<metadata>
Created by potrace 1.16, written by Peter Selinger 2001-2019
</metadata>
<g transform="translate(0.000000,1600.000000) scale(0.100000,-0.100000)"
fill="#000000" stroke="none">
<path d="M4170 13581 c-8 -5 -45 -17 -82 -27 -39 -9 -93 -32 -126 -53 -36 -24
-311 -292 -738 -718 -724 -723 -734 -734 -785 -879 -54 -152 -29 -354 62 -503
14 -24 752 -770 1639 -1657 886 -887 1610 -1617 1608 -1623 -1 -5 -723 -731
-1603 -1613 -1034 -1036 -1614 -1625 -1641 -1665 -69 -102 -89 -175 -89 -328
1 -118 3 -137 28 -200 15 -38 44 -95 64 -125 38 -58 609 -636 1126 -1141 294
-287 312 -303 390 -339 185 -87 393 -77 565 27 48 29 426 401 1672 1646 885
885 1614 1607 1619 1605 6 -1 736 -728 1624 -1613 1373 -1370 1624 -1616 1675
-1643 192 -103 386 -108 575 -15 68 34 112 76 773 736 535 533 710 714 738
761 119 199 111 451 -18 642 -14 22 -749 762 -1632 1646 -883 884 -1604 1612
-1603 1617 2 6 721 728 1596 1606 876 878 1606 1612 1622 1633 72 90 120 233
121 358 0 97 -18 173 -67 274 l-45 95 -691 689 c-381 379 -714 704 -742 722
-27 18 -81 46 -120 61 -63 25 -82 27 -200 28 -150 0 -225 -19 -321 -84 -32
-21 -738 -719 -1664 -1645 -885 -884 -1613 -1606 -1619 -1605 -6 2 -734 726
-1619 1609 -1718 1713 -1655 1654 -1802 1701 -73 24 -265 37 -290 20z"/>
</g>
</svg>
